<?xml version="1.0" standalone="no"?><!DOCTYPE svg PUBLIC "-//W3C//DTD SVG 1.1//EN" "http://www.w3.org/Graphics/SVG/1.1/DTD/svg11.dtd"><svg t="1763003365603" class="icon" viewBox="0 0 1024 1024" version="1.1" xmlns="http://www.w3.org/2000/svg" p-id="5053" width="48" height="48" xmlns:xlink="http://www.w3.org/1999/xlink"><path d="M369.10525 505.949444h16.058171a3.25818 3.25818 0 0 0 2.792726-4.887269l-8.145449-19.549078a3.25818 3.25818 0 0 0-5.585451 0l-7.912722 19.549078a3.25818 3.25818 0 0 0 2.792725 4.887269zM638.835976 505.949444h16.058171a3.25818 3.25818 0 0 0 2.792725-4.887269l-7.912722-19.549078a3.25818 3.25818 0 0 0-5.585451 0l-8.145449 19.549078a3.25818 3.25818 0 0 0 2.792726 4.887269zM511.999699 438.458581a11.403629 11.403629 0 1 0-11.170902-11.170901 11.170901 11.170901 0 0 0 11.170902 11.170901z" fill="#32aded" p-id="5054"></path><path d="M511.999699 0.000698a442.181517 442.181517 0 0 0-116.363558 869.003044A289.745257 289.745257 0 0 1 511.999699 1024a289.745257 289.745257 0 0 1 116.363557-154.996258A442.181517 442.181517 0 0 0 511.999699 0.000698z m-25.134529 84.247215a49.803602 49.803602 0 0 1 50.269057 0L756.595895 209.455101h-488.726939zM674.908678 791.272886H349.090719a23.272711 23.272711 0 0 1 0-46.545423h325.817959a23.272711 23.272711 0 0 1 0 46.545423z m151.272624-69.818134h-628.363207a11.636356 11.636356 0 0 1 0-23.272712h628.363207a11.636356 11.636356 0 0 1 0 23.272712zM255.999873 372.364081a23.272711 23.272711 0 0 1 23.272711 23.272711v209.454403a23.272711 23.272711 0 0 1-46.545422 0v-209.454403a23.272711 23.272711 0 0 1 23.272711-23.272711z m-23.272711-34.909067a11.636356 11.636356 0 0 1 11.636355-11.636356h23.272712a11.636356 11.636356 0 0 1 0 23.272711h-23.272712a11.636356 11.636356 0 0 1-11.636355-11.636355zM244.363517 651.636618h23.272712a11.636356 11.636356 0 0 1 0 23.272711h-23.272712a11.636356 11.636356 0 0 1 0-23.272711z m121.483554-213.178037a11.636356 11.636356 0 0 1 0-23.272711h126.60355l8.378176-80.523582a11.636356 11.636356 0 0 1 23.272711 0l8.378177 80.523582h126.60355a11.636356 11.636356 0 0 1 0 23.272711h-12.10181a11.403629 11.403629 0 0 1 9.774538 5.585451L684.45049 512.000349a11.170901 11.170901 0 0 1-9.774539 16.756352h-55.389053a11.170901 11.170901 0 0 1-9.774539-16.756352l27.694527-67.490863a10.938174 10.938174 0 0 1 9.774539-5.585451h-113.105378l14.196354 134.981726h-72.145405l14.196354-134.981726H377.017972a10.938174 10.938174 0 0 1 9.774539 5.585451l27.694527 67.490863a11.170901 11.170901 0 0 1-9.774539 16.756352H349.090719a11.170901 11.170901 0 0 1-9.774539-16.756352l27.694526-67.490863a11.403629 11.403629 0 0 1 9.774539-5.585451z m186.181691 168.494431l1.163636 11.403628h-81.45449l1.163635-11.403628z m-77.963583-11.170902v-11.170901h74.472676v11.170901z m80.290854 33.745432l4.189088 32.116341a11.403629 11.403629 0 0 1-11.170901 12.799992h-69.585407a11.403629 11.403629 0 0 1-11.170902-12.799992l3.490907-32.116341zM767.999524 372.364081a23.272711 23.272711 0 0 1 23.272711 23.272711v209.454403a23.272711 23.272711 0 0 1-46.545422 0v-209.454403a23.272711 23.272711 0 0 1 23.272711-23.272711z m-23.272711-34.909067a11.636356 11.636356 0 0 1 11.636355-11.636356h23.272712a11.636356 11.636356 0 0 1 0 23.272711h-23.272712a11.636356 11.636356 0 0 1-11.636355-11.636355z m11.636355 314.181604h23.272712a11.636356 11.636356 0 0 1 0 23.272711h-23.272712a11.636356 11.636356 0 0 1 0-23.272711z m75.636312-349.090672H191.999917a23.272711 23.272711 0 0 1-12.567264-42.821789l46.545422-26.996345h571.345065l46.545423 26.996345a23.272711 23.272711 0 0 1-11.869083 42.821789z" fill="#32aded" p-id="5055"></path></svg>